PathFileType	4	(X/Y/Z)	c:/Users/goper/Files/vsCode/490R/osim_files/C11/C11_Slow_03.trc
DataRate	CameraRate	NumFrames	NumMarkers	Units                	OrigDataRate	OrigDataStartFrame	OrigNumFrames
120.00	120.00	4	36	mm	120.0	1185	1354
                Frame#	Time	LPSIS			LASIS			LTH1			LTH2			LTH3			LTH4			LLFE			LMFE			LSH1			LSH2			LSH3			LSH4			LLMAL			LMMAL			LCAL			LMTP5			LTOE			LMTP1			RPSIS			RASIS			RTH1			RTH2			RTH3			RTH4			RLFE			RMFE			RSH1			RSH2			RSH3			RSH4			RLMAL			RMMAL			RCAL			RMTP1			RTOE			RMTP5		
		X1	Y1	Z1	X2	Y2	Z2	X3	Y3	Z3	X4	Y4	Z4	X5	Y5	Z5	X6	Y6	Z6	X7	Y7	Z7	X8	Y8	Z8	X9	Y9	Z9	X10	Y10	Z10	X11	Y11	Z11	X12	Y12	Z12	X13	Y13	Z13	X14	Y14	Z14	X15	Y15	Z15	X16	Y16	Z16	X17	Y17	Z17	X18	Y18	Z18	X19	Y19	Z19	X20	Y20	Z20	X21	Y21	Z21	X22	Y22	Z22	X23	Y23	Z23	X24	Y24	Z24	X25	Y25	Z25	X26	Y26	Z26	X27	Y27	Z27	X28	Y28	Z28	X29	Y29	Z29	X30	Y30	Z30	X31	Y31	Z31	X32	Y32	Z32	X33	Y33	Z33	X34	Y34	Z34	X35	Y35	Z35	X36	Y36	Z36

1185	9.86667	-3834.04980	1020.18402	203.69839	-4008.53589	1018.04816	291.80484	-4085.83398	651.57904	349.54443	-4102.01807	608.07336	342.74405	-4030.50415	629.80914	327.16306	-4057.61963	586.25299	326.24973	0.00000	0.00000	0.00000	-4102.77246	539.38019	333.76947	0.00000	0.00000	0.00000	-4047.70923	397.60251	327.21927	-4111.08057	433.69724	345.20355	-4098.91846	388.93912	338.86459	-4055.30591	127.53551	266.20621	-4109.71436	152.51109	188.95045	-4027.11279	86.59071	194.20393	-4159.73926	73.07520	321.41245	-4246.07373	106.92154	275.90802	-4221.10254	89.15185	222.31778	0.00000	0.00000	0.00000	-4024.36719	1007.88184	58.27840	-3935.72632	652.68591	5.20084	0.00000	0.00000	0.00000	-4000.38232	652.79907	16.65863	-3994.01660	610.22150	18.72202	-3955.58984	524.87756	26.52812	-3933.83643	503.00540	137.55966	-3883.31519	415.56125	13.05327	0.00000	0.00000	0.00000	-3949.06079	415.47821	18.22115	-3943.61621	369.03278	18.91507	-3906.69019	111.40787	69.97291	-3927.72046	116.62407	162.15466	-3835.38525	72.08130	120.52831	-4062.33374	67.40401	142.62776	-4063.45093	77.03851	93.24113	-4017.15454	50.03603	28.19741
1186	9.87500	-3839.66040	1019.74182	203.57597	-4013.75195	1017.24872	292.52679	-4087.29639	648.99115	349.82877	-4103.39600	605.53802	343.07938	0.00000	0.00000	0.00000	-4058.98584	583.92950	325.91977	0.00000	0.00000	0.00000	-4104.53076	536.79932	334.01218	0.00000	0.00000	0.00000	-4054.51392	390.72681	323.15646	-4116.13672	431.42398	345.75436	-4106.11035	386.37033	339.25696	-4076.74292	122.62366	266.41864	-4131.93604	149.90823	190.39507	-4052.68481	79.73448	193.50111	-4183.14355	73.41868	324.06329	-4268.51660	110.51308	280.17776	-4245.52246	91.66879	226.12140	0.00000	0.00000	0.00000	-4030.32983	1007.58539	58.96740	-3938.08667	653.20715	6.15919	0.00000	0.00000	0.00000	-4003.97363	652.50201	17.29970	-3997.30225	609.92596	19.24259	-3957.80737	524.79364	26.65318	-3935.70288	502.92480	137.67183	-3884.63062	415.83298	13.18784	0.00000	0.00000	0.00000	-3950.40698	415.34030	18.28800	-3944.72729	368.93353	18.97134	-3906.73657	111.44197	70.03702	-3927.76709	116.64476	162.22829	-3835.38745	72.09110	120.55592	-4062.31836	67.36863	142.62161	-4063.41846	76.97272	93.22015	-4017.11182	50.02977	28.16008
1187	9.88333	-3845.02222	1019.20624	203.31660	-4019.03540	1016.42737	293.26767	-4088.86475	646.35748	350.18677	-4104.71484	602.82440	343.45847	0.00000	0.00000	0.00000	-4060.45850	581.62720	325.75751	0.00000	0.00000	0.00000	-4106.15039	533.99744	334.30945	0.00000	0.00000	0.00000	-4061.76660	385.64932	322.17953	-4121.06152	428.88577	346.38669	-4113.12695	383.54404	339.72830	-4097.84082	118.61438	266.45325	-4153.98682	148.16928	191.75383	-4077.21851	74.11757	192.55020	-4204.83154	73.72832	326.53311	-4289.99707	114.60226	284.85110	-4269.19141	94.87155	230.25842	0.00000	0.00000	0.00000	-4036.45093	1007.30121	59.66228	-3943.29272	653.23315	5.43065	-3943.83521	609.30499	8.33193	-4007.73608	652.23724	17.98313	-4000.78564	609.71057	19.82787	-3960.31763	524.67352	26.84009	-3937.70483	502.89444	137.83734	-3886.29321	416.04257	13.30800	0.00000	0.00000	0.00000	-3952.04761	415.26102	18.41393	-3946.04639	368.84354	19.08128	-3906.76172	111.47219	70.10043	-3927.91357	116.69717	162.32034	-3835.32715	72.15316	120.56858	-4062.33228	67.31318	142.60847	-4063.44531	76.93415	93.20196	-4017.12622	49.98588	28.13216
1188	9.89167	-3850.81226	1018.49945	203.10611	-4024.40479	1015.56177	294.01071	-4090.28809	643.66077	350.54498	-4105.92041	600.02667	343.93292	0.00000	0.00000	0.00000	-4061.70020	579.23456	325.73010	0.00000	0.00000	0.00000	-4105.48242	529.87927	332.53442	0.00000	0.00000	0.00000	-4068.81982	380.51733	321.11292	-4125.83496	426.21463	346.96460	-4119.88037	380.62122	340.09744	-4119.38135	113.97367	264.92603	-4175.58936	147.31064	193.15250	-4101.45166	69.56181	191.16039	-4223.35107	73.05794	327.37967	-4310.34863	119.17035	289.99728	-4292.03613	98.77126	234.79492	0.00000	0.00000	0.00000	-4042.74414	1007.03027	60.41621	-3947.04590	653.19934	5.72509	0.00000	0.00000	0.00000	-4011.63477	651.92175	18.77836	-4004.49951	609.50995	20.51740	-3962.89258	524.54413	27.07220	-3939.84399	502.96198	137.96048	-3888.15820	416.24667	13.43888	0.00000	0.00000	0.00000	-3953.89941	415.21561	18.52718	-3947.57104	368.81613	19.18945	-3906.75610	111.53774	70.19865	-3927.91016	116.58189	162.42313	-3835.35767	72.13365	120.64284	-4062.32959	67.29688	142.59370	-4063.56104	77.19114	93.08496	-4017.12012	49.94947	28.11196
